<?xml version="1.0" encoding="UTF-8" standalone="no"?>
<!-- Created with Inkscape (http://www.inkscape.org/) -->

<svg
   xmlns:dc="http://purl.org/dc/elements/1.1/"
   xmlns:cc="http://creativecommons.org/ns#"
   xmlns:rdf="http://www.w3.org/1999/02/22-rdf-syntax-ns#"
   xmlns:svg="http://www.w3.org/2000/svg"
   xmlns="http://www.w3.org/2000/svg"
   xmlns:sodipodi="http://sodipodi.sourceforge.net/DTD/sodipodi-0.dtd"
   xmlns:inkscape="http://www.inkscape.org/namespaces/inkscape"
   width="1046.974"
   height="1181.2086"
   id="svg4553"
   version="1.1"
   inkscape:version="0.48.4 r9939"
   sodipodi:docname="logo-text.svg">
  <defs
     id="defs4555" />
  <sodipodi:namedview
     id="base"
     pagecolor="#ffffff"
     bordercolor="#666666"
     borderopacity="1.0"
     inkscape:pageopacity="0.0"
     inkscape:pageshadow="2"
     inkscape:zoom="1"
     inkscape:cx="310.12077"
     inkscape:cy="918.96316"
     inkscape:current-layer="layer1"
     inkscape:document-units="mm"
     showgrid="true"
     inkscape:window-width="1214"
     inkscape:window-height="841"
     inkscape:window-x="422"
     inkscape:window-y="106"
     inkscape:window-maximized="0"
     units="mm"
     fit-margin-top="0"
     fit-margin-left="0"
     fit-margin-right="0"
     fit-margin-bottom="0">
    <inkscape:grid
       type="xygrid"
       id="grid3026"
       empspacing="5"
       visible="true"
       enabled="true"
       snapvisiblegridlinesonly="false"
       units="mm"
       spacingx="1mm"
       spacingy="1mm"
       dotted="false"
       originx="-21.24294mm"
       originy="170.90926mm" />
  </sodipodi:namedview>
  <metadata
     id="metadata4558">
    <rdf:RDF>
      <cc:Work
         rdf:about="">
        <dc:format>image/svg+xml</dc:format>
        <dc:type
           rdf:resource="http://purl.org/dc/dcmitype/StillImage" />
        <dc:title />
      </cc:Work>
    </rdf:RDF>
  </metadata>
  <g
     id="layer1"
     inkscape:label="Layer 1"
     inkscape:groupmode="layer"
     transform="translate(-75.270261,-24.375428)">
    <path
       style="font-size:144px;font-style:normal;font-weight:normal;line-height:125%;letter-spacing:0px;word-spacing:0px;fill:#000000;fill-opacity:1;stroke:none;font-family:Sans"
       d="M 104.21875 104.03125 L 104.21875 118.75 L 116.875 118.75 L 116.875 104.03125 L 104.21875 104.03125 z M 375.4375 106.375 L 362.84375 113.96875 L 362.84375 132.4375 L 353.5625 132.4375 L 353.5625 142.28125 L 362.84375 142.28125 L 362.84375 185.25 C 362.84373 192.84376 363.34374 197.82032 364.375 200.1875 C 365.40624 202.5547 367.18748 204.48438 369.71875 205.9375 C 372.24998 207.39063 375.81248 208.09375 380.40625 208.09375 C 383.21872 208.09375 386.40621 207.71875 389.96875 206.96875 L 388.15625 195.8125 C 385.85934 196.14064 383.99996 196.28126 382.59375 196.28125 C 380.71872 196.28126 379.28903 195.98438 378.28125 195.375 C 377.27341 194.76563 376.53904 193.93751 376.09375 192.90625 C 375.64841 191.87501 375.43748 189.57814 375.4375 185.96875 L 375.4375 142.28125 L 388.15625 142.28125 L 388.15625 132.4375 L 375.4375 132.4375 L 375.4375 106.375 z M 160.90625 130.75 C 157.01559 130.75008 153.36716 131.27351 149.96875 132.28125 C 146.57029 133.28913 143.87498 134.5157 141.90625 135.96875 C 139.28124 137.84382 137.21093 140.19538 135.6875 143.03125 C 134.16406 145.86725 133.40624 148.95319 133.40625 152.28125 C 133.40624 155.93756 134.33593 159.25786 136.1875 162.28125 C 138.03905 165.30472 140.7578 167.69535 144.34375 169.40625 C 147.92967 171.11722 154.37498 173.12503 163.65625 175.46875 C 170.54683 177.20315 174.85933 178.65628 176.59375 179.78125 C 179.07808 181.4219 180.31244 183.6719 180.3125 186.53125 C 180.31244 189.71877 178.90619 192.47658 176.09375 194.84375 C 173.2812 197.21095 168.9687 198.40626 163.15625 198.40625 C 157.39059 198.40626 152.89841 197.07814 149.6875 194.40625 C 146.47654 191.73439 144.51561 187.89065 143.8125 182.875 L 131.3125 184.84375 C 132.71875 192.76564 135.94531 198.71876 141.03125 202.75 C 146.11717 206.78125 153.5156 208.8125 163.21875 208.8125 C 169.07808 208.8125 174.32808 207.78906 178.96875 205.75 C 183.60932 203.71094 187.164 200.82032 189.625 197.09375 C 192.08587 193.3672 193.31243 189.40627 193.3125 185.1875 C 193.31243 180.87503 192.29681 177.25003 190.28125 174.34375 C 188.26556 171.43753 185.50775 169.24222 181.96875 167.71875 C 178.42964 166.19535 172.17183 164.23442 163.21875 161.84375 C 157.03122 160.1563 153.29685 159.06255 152.03125 158.59375 C 149.8281 157.70317 148.21873 156.57817 147.1875 155.21875 C 146.15623 153.9063 145.65623 152.45318 145.65625 150.8125 C 145.65623 148.23444 146.8906 145.98444 149.375 144.0625 C 151.85935 142.14069 155.99997 141.15632 161.8125 141.15625 C 166.73433 141.15632 170.55464 142.25007 173.25 144.40625 C 175.94526 146.56256 177.56245 149.56256 178.125 153.40625 L 190.5 151.71875 C 189.70306 146.89069 188.26557 143.03912 186.15625 140.15625 C 184.04682 137.27351 180.77338 134.96882 176.34375 133.28125 C 171.91402 131.59382 166.76558 130.75008 160.90625 130.75 z M 238.53125 130.75 C 232.10934 130.75008 226.14841 132.25788 220.6875 135.28125 C 215.22654 138.30475 211.17186 142.85944 208.5 148.90625 C 205.82812 154.95318 204.49999 162.00004 204.5 170.0625 C 204.49999 182.53127 207.60156 192.10158 213.8125 198.78125 C 220.02342 205.46094 228.24997 208.8125 238.46875 208.8125 C 246.62496 208.8125 253.49213 206.38281 259.09375 201.53125 C 264.69525 196.6797 268.1718 189.95314 269.53125 181.375 L 257.09375 179.78125 C 256.20306 186.1094 254.07807 190.79689 250.75 193.84375 C 247.42183 196.89064 243.2812 198.40626 238.3125 198.40625 C 232.12496 198.40626 227.12497 196.14064 223.28125 191.59375 C 219.43748 187.0469 217.49998 179.75003 217.5 169.71875 C 217.49998 159.82818 219.48435 152.60162 223.46875 148.03125 C 227.4531 143.461 232.65622 141.15632 239.03125 141.15625 C 243.24996 141.15632 246.83589 142.43757 249.8125 144.96875 C 252.78901 147.50006 254.85932 151.26568 256.03125 156.28125 L 268.34375 154.375 C 266.89055 146.82818 263.59369 141.00788 258.4375 136.90625 C 253.2812 132.80476 246.64057 130.75008 238.53125 130.75 z M 104.21875 132.4375 L 104.21875 210.90625 C 104.21874 217.74999 103.60937 222.03905 102.34375 223.75 C 101.07812 225.46092 99.14062 226.31248 96.5625 226.3125 C 95.10937 226.31248 93.125 225.99998 90.59375 225.34375 L 88.1875 236.09375 C 91.375 236.98435 94.70313 237.43747 98.125 237.4375 C 105.20312 237.43747 110.26561 235.09372 113.3125 230.40625 C 115.70311 226.79686 116.87498 220.37499 116.875 211.1875 L 116.875 132.4375 L 104.21875 132.4375 z M 280.09375 132.4375 L 280.09375 178.71875 C 280.09374 184.1094 280.32812 188.0469 280.84375 190.53125 C 281.59374 194.23439 282.89843 197.35158 284.75 199.90625 C 286.60155 202.46095 289.42967 204.59376 293.25 206.28125 C 297.07028 207.96875 301.18747 208.8125 305.59375 208.8125 C 315.57808 208.8125 323.49995 204.59376 329.3125 196.15625 L 329.3125 207.125 L 340.625 207.125 L 340.625 132.4375 L 327.96875 132.4375 L 327.96875 172.46875 C 327.96869 178.84378 327.25775 183.67971 325.875 187.03125 C 324.49213 190.38282 322.14057 193.0547 318.8125 195 C 315.48433 196.94532 311.92183 197.90626 308.125 197.90625 C 304.32809 197.90626 301.1406 196.96095 298.5625 195.0625 C 295.98435 193.16408 294.29685 190.54689 293.5 187.21875 C 292.98435 184.92189 292.74998 180.4844 292.75 173.875 L 292.75 132.4375 L 280.09375 132.4375 z "
       transform="translate(75.270261,24.375428)"
       id="path2988" />
  </g>
</svg>
